HIERARCHY
ROOT Hips
{
 OFFSET 0.000000 0.000000 0.000000
 CHANNELS 6 Xposition Yposition Zposition Yrotation Xrotation Zrotation
 JOINT Chest
 {
  OFFSET 0.000000 9.585900 0.002600
  CHANNELS 3 Yrotation Xrotation Zrotation
  JOINT Chest2
  {
   OFFSET 0.000000 9.601200 -0.005300
   CHANNELS 3 Yrotation Xrotation Zrotation
   JOINT Chest3
   {
    OFFSET 0.000000 9.561800 0.000000
    CHANNELS 3 Yrotation Xrotation Zrotation
    JOINT Chest4
    {
     OFFSET 0.000000 9.552100 0.000000
     CHANNELS 3 Yrotation Xrotation Zrotation
     JOINT Neck
     {
      OFFSET 0.000000 14.453000 0.000000
      CHANNELS 3 Yrotation Xrotation Zrotation
      JOINT Head
      {
       OFFSET 0.000000 8.936500 -0.011300
       CHANNELS 3 Yrotation Xrotation Zrotation
       End Site
       {
        OFFSET 0.000000 17.073600 -0.006000
       }
      }
     }
     JOINT RightCollar
     {
      OFFSET -2.921100 9.558500 0.000000
      CHANNELS 3 Yrotation Xrotation Zrotation
      JOINT RightShoulder
      {
       OFFSET -13.519700 0.000000 0.000000
       CHANNELS 3 Yrotation Xrotation Zrotation
       JOINT RightElbow
       {
        OFFSET 0.000000 -29.696600 0.000000
        CHANNELS 3 Yrotation Xrotation Zrotation
        JOINT RightWrist
        {
         OFFSET 0.000000 -24.004700 0.000000
         CHANNELS 3 Yrotation Xrotation Zrotation
         End Site
         {
          OFFSET 0.000000 -17.728500 0.000000
         }
        }
       }
      }
     }
     JOINT LeftCollar
     {
      OFFSET 2.921100 9.558500 0.000000
      CHANNELS 3 Yrotation Xrotation Zrotation
      JOINT LeftShoulder
      {
       OFFSET 13.519700 0.000000 0.000000
       CHANNELS 3 Yrotation Xrotation Zrotation
       JOINT LeftElbow
       {
        OFFSET 0.000000 -29.696600 0.000000
        CHANNELS 3 Yrotation Xrotation Zrotation
        JOINT LeftWrist
        {
         OFFSET 0.000000 -24.004700 0.000000
         CHANNELS 3 Yrotation Xrotation Zrotation
         End Site
         {
          OFFSET 0.000000 -17.728500 0.000000
         }
        }
       }
      }
     }
    }
   }
  }
 }
 JOINT RightHip
 {
  OFFSET -7.771700 -0.012900 -0.001300
  CHANNELS 3 Yrotation Xrotation Zrotation
  JOINT RightKnee
  {
   OFFSET 0.000000 -40.869800 0.001200
   CHANNELS 3 Yrotation Xrotation Zrotation
   JOINT RightAnkle
   {
    OFFSET 0.000000 -39.717900 0.002100
    CHANNELS 3 Yrotation Xrotation Zrotation
    JOINT RightToe
    {
     OFFSET 0.000000 -4.965400 11.033500
     CHANNELS 3 Yrotation Xrotation Zrotation
     End Site
     {
      OFFSET 0.000000 -1.423100 5.872300
     }
    }
   }
  }
 }
 JOINT LeftHip
 {
  OFFSET 7.771700 -0.012900 -0.001300
  CHANNELS 3 Yrotation Xrotation Zrotation
  JOINT LeftKnee
  {
   OFFSET 0.000000 -40.869800 0.001200
   CHANNELS 3 Yrotation Xrotation Zrotation
   JOINT LeftAnkle
   {
    OFFSET 0.000000 -39.717900 0.002100
    CHANNELS 3 Yrotation Xrotation Zrotation
    JOINT LeftToe
    {
     OFFSET 0.000000 -4.965400 11.033500
     CHANNELS 3 Yrotation Xrotation Zrotation
     End Site
     {
      OFFSET 0.000000 -1.423100 5.872300
     }
    }
   }
  }
 }
}
MOTION
Frames: 16
Frame Time: 0.008333
15.732980 48.788034 54.608434 172.459189 -32.737131 -6.786510 7.617735 16.929613 6.154438 0.825165 1.995564 0.574927 1.340623 3.401294 1.087917 6.570332 14.659138 5.306829 -2.163904 18.324299 4.048892 -5.248020 -1.426636 8.139590 -3.179586 0.025596 -2.572434 1.511824 -4.388144 4.297946 62.223153 -74.933231 -78.818958 0.895311 -3.319529 13.445386 -7.177162 -0.667519 0.775926 0.423086 -1.108455 -3.789098 -98.036797 -72.286537 102.398733 14.270737 -11.157329 3.475753 4.951691 -49.612048 8.386046 -109.077578 83.644851 -97.609251 -4.381842 -6.882072 1.336025 -0.132355 -0.541590 -1.392946 -7.929661 -52.169081 15.383141 -155.911793 80.422035 -162.603883 0.671745 -17.256514 8.224212 -0.019904 -0.053981 0.024597
15.735936 48.793004 54.625042 172.452677 -32.731129 -6.792717 7.615209 16.963224 6.204449 0.811913 2.043312 0.623648 1.355806 3.340238 1.017320 6.568288 14.689700 5.351362 -2.173170 18.298822 3.977416 -5.212336 -1.394316 8.036016 -3.191388 0.000998 -2.592567 1.422830 -4.386392 4.311669 62.553785 -75.044332 -79.225437 0.781971 -3.232819 13.203032 -7.184039 -0.664067 0.774851 0.435377 -1.099784 -3.787337 -98.246571 -71.797197 102.696029 14.295031 -11.747457 3.774307 5.053444 -49.347786 8.209601 -108.325357 83.567830 -96.864559 -3.964042 -7.292814 1.694321 -0.144841 -0.230667 -1.375958 -7.811844 -52.181711 15.359173 -155.702494 80.442477 -162.364625 0.639422 -17.238441 8.275010 -0.021328 -0.041176 0.011152
15.738956 48.792725 54.648284 172.391840 -32.680969 -6.774696 7.657937 16.925852 6.232539 0.809789 2.055375 0.637015 1.350936 3.368496 1.049053 6.560442 14.690754 5.356441 -2.152826 18.345882 3.929944 -5.222995 -1.468956 7.968225 -3.194195 -0.040436 -2.644755 1.328437 -4.362599 4.335256 62.874586 -75.141659 -79.633651 0.677701 -3.182329 12.946292 -7.183843 -0.693593 0.733764 0.443686 -1.104283 -3.797069 -98.369649 -71.346721 102.889270 14.303758 -12.270146 4.039714 5.133888 -49.111570 8.105167 -107.421306 83.581668 -95.977138 -3.477564 -7.936600 1.733756 -0.103091 0.205758 -1.152818 -7.760390 -52.237240 15.402028 -155.538070 80.465122 -162.212954 0.619771 -17.219320 8.299267 -0.029134 -0.028984 0.016145
15.738260 48.790647 54.670560 172.375985 -32.624168 -6.755166 7.655770 16.918133 6.268417 0.813971 2.018696 0.591943 1.345815 3.415774 1.108363 6.546826 14.691745 5.365793 -2.142125 18.365680 3.871347 -5.227259 -1.514028 7.897743 -3.195273 -0.081536 -2.703161 1.235771 -4.336251 4.344537 63.169222 -75.227393 -80.020050 0.583941 -3.182692 12.717950 -7.181707 -0.723544 0.686657 0.450990 -1.108611 -3.810492 -98.540687 -70.960954 103.122076 14.307665 -12.730761 4.268913 5.115425 -48.874619 8.073178 -106.352625 83.746923 -94.933940 -3.183046 -8.605463 1.510175 -0.085216 0.588919 -0.803968 -7.707304 -52.300222 15.411424 -155.256116 80.482339 -161.949363 0.608264 -17.193176 8.325906 -0.037173 -0.021736 0.034461
15.746587 48.791585 54.687901 172.391029 -32.606241 -6.796043 7.651492 16.944399 6.359533 0.809429 2.015531 0.582059 1.346454 3.417621 1.118378 6.529931 14.701994 5.393061 -2.135671 18.372977 3.806402 -5.156259 -1.456098 7.699277 -3.197973 -0.102976 -2.730435 1.200339 -4.345332 4.293388 63.339745 -75.306389 -80.327636 0.504016 -3.233083 12.545129 -7.188380 -0.691826 0.731206 0.470506 -1.155433 -3.907459 -98.792136 -70.639396 103.434333 14.315593 -13.144099 4.457242 4.942234 -48.615597 8.197898 -105.246266 84.015485 -93.840865 -3.051720 -9.165888 1.083568 -0.058110 0.821412 -0.409364 -7.776503 -52.314750 15.549234 -154.822610 80.470025 -161.560752 0.591343 -17.173104 8.336414 -0.019798 -0.017097 0.056284
15.752400 48.790706 54.703570 172.414523 -32.588045 -6.815783 7.635224 16.961388 6.416327 0.805140 2.048942 0.625842 1.341067 3.392251 1.085369 6.508336 14.711463 5.420263 -2.126210 18.383430 3.741865 -5.103322 -1.425775 7.551559 -3.194993 -0.086813 -2.708021 1.089424 -4.356763 4.196471 63.704243 -75.386632 -80.747346 0.442427 -3.317228 12.436483 -7.187985 -0.688182 0.737983 0.510156 -1.145533 -3.935707 -99.167046 -70.382451 103.844112 14.337029 -13.518395 4.612178 4.730368 -48.374479 8.336129 -104.230097 84.319233 -92.809811 -3.076388 -9.716281 0.589979 -0.024832 0.998732 -0.078237 -7.869573 -52.326473 15.658875 -154.504196 80.466111 -161.303613 0.574098 -17.151624 8.329420 -0.017608 -0.013617 0.074891
15.757010 48.786492 54.720904 172.443892 -32.545580 -6.821191 7.610565 16.955668 6.455899 0.801443 2.050540 0.629880 1.332722 3.378181 1.059302 6.493453 14.731127 5.481002 -2.132065 18.372932 3.659744 -5.047125 -1.378252 7.446779 -3.189852 -0.089374 -2.734460 0.967058 -4.344471 4.139462 64.088000 -75.476544 -81.170843 0.395191 -3.413752 12.379769 -7.186192 -0.697286 0.722995 0.545144 -1.148623 -3.971259 -99.451311 -70.129452 104.152110 14.369223 -13.857032 4.749325 4.468857 -48.179986 8.497102 -103.223379 84.638124 -91.785599 -3.207446 -10.249623 0.077133 0.012488 1.132948 0.179505 -7.997536 -52.361661 15.783960 -154.128398 80.467711 -161.021323 0.573237 -17.120055 8.269736 -0.012834 -0.010425 0.142082
15.763993 48.780744 54.740035 172.492753 -32.478886 -6.840493 7.578891 16.930131 6.502240 0.796775 2.058263 0.647600 1.323371 3.378694 1.066554 6.458361 14.727289 5.486596 -2.112186 18.401389 3.612616 -5.012111 -1.367041 7.331588 -3.184443 -0.114481 -2.810634 0.847798 -4.316578 4.121056 64.431006 -75.576885 -81.552107 0.351442 -3.504917 12.357592 -7.188990 -0.708584 0.705880 0.585124 -1.145123 -3.999239 -99.749061 -69.910648 104.459514 14.396796 -14.170118 4.877715 4.130510 -48.043988 8.703668 -102.196677 84.946208 -90.761886 -3.344981 -10.663578 -0.475764 0.057225 1.165084 0.408250 -8.193004 -52.418668 15.945648 -153.670309 80.470985 -160.677007 0.580466 -17.074648 8.252007 -0.024453 -0.008407 0.159107
15.777445 48.779179 54.756754 172.561024 -32.420771 -6.896461 7.553995 16.917104 6.584359 0.790611 2.056209 0.650389 1.316280 3.384054 1.087712 6.412919 14.718166 5.488858 -2.089882 18.429466 3.571650 -4.979636 -1.355938 7.225077 -3.189448 -0.109969 -2.835484 0.718594 -4.313832 4.042596 64.791665 -75.681618 -81.918460 0.302173 -3.581579 12.352765 -7.195077 -0.727336 0.670090 0.612000 -1.147091 -4.028051 -99.993132 -69.695357 104.720620 14.409803 -14.459891 5.002175 3.735337 -47.944508 8.952841 -101.338174 85.195772 -89.916286 -3.468187 -10.929392 -1.032896 0.131003 1.090904 0.609083 -8.450909 -52.456627 16.146031 -153.398299 80.459620 -160.504194 0.587007 -17.062768 8.211722 -0.028206 -0.002799 0.168779
15.786596 48.782252 54.771965 172.646440 -32.348357 -6.928156 7.488015 16.877718 6.597491 0.807251 2.079081 0.684642 1.304321 3.377738 1.091081 6.368858 14.710528 5.505617 -2.078096 18.443736 3.524249 -4.942060 -1.333999 7.133507 -3.196756 -0.102217 -2.859176 0.577967 -4.307006 3.952855 65.166285 -75.780534 -82.276559 0.246580 -3.642533 12.341254 -7.196942 -0.756360 0.601327 0.629564 -1.135645 -4.019441 -100.252108 -69.490819 104.996053 14.407149 -14.719317 5.123596 3.398202 -47.910993 9.112603 -101.042908 85.329563 -89.628918 -3.490869 -11.114513 -1.489963 0.150210 0.975301 0.712104 -8.606504 -52.517866 16.221001 -153.145466 80.470341 -160.306359 0.606849 -17.045937 8.180659 -0.037763 0.000941 0.130440
15.790521 48.793528 54.786378 172.754668 -32.253659 -6.938921 7.438701 16.864347 6.638876 0.787872 2.060855 0.670108 1.291013 3.368887 1.093166 6.320621 14.698892 5.518337 -2.067939 18.454889 3.480713 -4.941643 -1.343563 7.074437 -3.207580 -0.076646 -2.830637 0.443560 -4.310303 3.800268 65.554534 -75.863779 -82.641347 0.194904 -3.690371 12.299298 -7.226583 -0.770051 0.588132 0.673015 -1.092024 -3.975857 -100.672855 -69.363354 105.438731 14.392704 -14.945357 5.236078 3.144342 -47.960482 9.157100 -101.513052 85.314701 -90.101612 -3.394925 -11.235899 -1.777913 0.131010 0.838885 0.698901 -8.741265 -52.599797 16.237824 -153.049854 80.507456 -160.259110 0.591190 -17.007085 8.152606 -0.036998 0.003386 0.142941
15.792567 48.820096 54.796042 172.854950 -32.171290 -6.934935 7.402145 16.867027 6.677062 0.766671 2.040367 0.654324 1.277348 3.359512 1.094070 6.266624 14.674571 5.485665 -2.063152 18.459452 3.459949 -4.875400 -1.299690 7.002366 -3.203667 -0.061052 -2.790298 0.305014 -4.286483 3.667954 65.938405 -75.919888 -83.001955 0.159652 -3.733389 12.214324 -7.262705 -0.767245 0.610274 0.685854 -1.096048 -3.978109 -100.888473 -69.187544 105.706667 14.375011 -15.139333 5.330430 2.989192 -48.065828 9.114013 -102.708449 85.161602 -91.291719 -3.172908 -11.279770 -1.886442 0.083617 0.675438 0.583818 -8.887677 -52.654152 16.258888 -152.899949 80.534672 -160.180839 0.583084 -16.974625 8.125595 -0.033700 -0.006452 0.153171
15.790376 48.863184 54.801821 172.964137 -32.089398 -6.916310 7.340240 16.856738 6.677302 0.758883 2.035491 0.654577 1.264621 3.352043 1.094388 6.210208 14.650755 5.452676 -2.058884 18.462839 3.440485 -4.806781 -1.257358 6.946980 -3.200318 -0.063680 -2.798476 0.175902 -4.245230 3.578646 66.299312 -75.938400 -83.341632 0.144194 -3.778262 12.090077 -7.308224 -0.768664 0.617720 0.713251 -1.107267 -3.993058 -101.036700 -68.976280 105.899157 14.362080 -15.305636 5.401974 2.930269 -48.223360 8.969534 -104.391567 84.912778 -92.950909 -2.883171 -11.274729 -1.862660 0.018614 0.508087 0.416790 -8.970415 -52.704538 16.201590 -153.018408 80.595934 -160.338241 0.537994 -16.925009 8.100227 -0.034901 -0.035848 0.139883
15.786201 48.923657 54.802292 173.081903 -32.019678 -6.897255 7.272917 16.850087 6.674670 0.723844 2.013739 0.619328 1.270775 3.359078 1.112086 6.192980 14.676269 5.532974 -2.081326 18.439385 3.355438 -4.770429 -1.235273 6.902734 -3.201675 -0.093590 -2.847960 0.047388 -4.223154 3.442347 66.622203 -75.918954 -83.652032 0.145852 -3.826902 11.937273 -7.389602 -0.826057 0.537401 0.712084 -1.143647 -3.943058 -101.064452 -68.805374 106.015754 14.353988 -15.443268 5.444061 2.950641 -48.393858 8.748937 -106.193306 84.638877 -94.694587 -2.593420 -11.255563 -1.773067 -0.053034 0.363995 0.244377 -9.021460 -52.737407 16.081801 -153.635766 80.695575 -160.949559 0.440194 -16.858486 8.058309 -0.007757 -0.094249 0.091405
15.793158 49.002002 54.795490 173.236704 -31.987875 -6.968662 7.201939 16.862894 6.750566 0.732419 2.024422 0.637254 1.247040 3.347036 1.095107 6.162625 14.689746 5.553774 -2.040565 18.477348 3.362958 -4.781379 -1.249444 6.850722 -3.207276 -0.105807 -2.858506 -0.067220 -4.203092 3.312147 66.890986 -75.871958 -83.922429 0.162121 -3.880428 11.771423 -7.429834 -0.876646 0.465114 0.660032 -1.194856 -3.849538 -100.985564 -68.618015 106.029296 14.339221 -15.540152 5.440796 2.861110 -48.488006 8.667945 -107.406556 84.384913 -95.863778 -2.361790 -11.309142 -1.663751 -0.099008 0.327357 0.096911 -9.130012 -52.712252 16.047448 -153.675654 80.762639 -160.978193 0.450102 -16.778489 8.022848 -0.026027 -0.165516 0.092485
15.800342 49.088143 54.784715 173.384119 -31.958579 -7.040058 7.138738 16.870142 6.827777 0.742626 2.032370 0.655255 1.237988 3.347423 1.095452 6.116093 14.691017 5.535118 -2.014122 18.508267 3.371478 -4.772124 -1.230190 6.829152 -3.213987 -0.111051 -2.866082 -0.167022 -4.175700 3.209314 67.103185 -75.813836 -84.150527 0.190437 -3.935841 11.617274 -7.489015 -0.907384 0.418246 0.645614 -1.263493 -3.768489 -100.841937 -68.384114 105.966146 14.305161 -15.582933 5.376609 2.790183 -48.573168 8.574742 -108.549856 84.208765 -96.944443 -2.199670 -11.372613 -1.569865 -0.153105 0.322850 -0.022973 -9.238966 -52.678319 16.011694 -153.749614 80.835072 -161.036810 0.459165 -16.686123 7.994908 -0.043451 -0.252928 0.080181
